<?xml version="1.0" standalone="no"?>
<!DOCTYPE svg PUBLIC "-//W3C//DTD SVG 20010904//EN"
 "http://www.w3.org/TR/2001/REC-SVG-20010904/DTD/svg10.dtd">
<svg version="1.0" xmlns="http://www.w3.org/2000/svg"
 width="550.000000pt" height="550.000000pt" viewBox="0 0 550.000000 550.000000"
 preserveAspectRatio="xMidYMid meet">
<metadata>
Created by potrace 1.11, written by Peter Selinger 2001-2013
</metadata>
<g transform="translate(0.000000,550.000000) scale(0.100000,-0.100000)"
fill="#000000" stroke="none">
<path d="M2000 5399 c-78 -5 -108 -12 -165 -39 -38 -17 -130 -57 -177 -76 -27
-10 -48 -22 -48 -27 0 -4 -17 -43 -37 -87 l-37 -80 -170 -95 c-673 -375 -731
-410 -734 -439 -3 -24 -1 -28 15 -21 10 3 70 26 133 50 63 24 277 106 476 182
l360 139 99 -39 100 -38 170 82 c172 84 198 91 274 77 35 -7 50 -21 51 -48 1
-8 3 -31 6 -50 5 -35 5 -36 -88 -93 -51 -32 -199 -126 -328 -208 l-235 -150
-6 -47 c-4 -26 -9 -65 -13 -87 -3 -22 -8 -62 -11 -90 -9 -82 -15 -125 -19
-154 -3 -14 -8 -51 -11 -81 -4 -30 -9 -66 -11 -80 -25 -184 -24 -227 11 -410
l28 -145 27 80 c16 45 30 73 33 65 3 -8 24 -80 46 -159 22 -79 42 -145 44
-147 2 -2 14 26 27 62 12 36 26 62 30 57 7 -7 57 -167 64 -200 5 -27 16 -25
17 3 0 16 3 43 5 59 2 17 6 45 8 63 2 18 6 36 9 39 3 2 101 -78 219 -179 117
-101 226 -195 242 -208 16 -14 34 -30 40 -35 32 -30 442 -383 461 -398 58 -44
89 -82 139 -167 51 -88 57 -93 122 -127 38 -19 72 -38 76 -42 5 -4 141 -478
163 -571 2 -8 16 -59 31 -113 l27 -97 -46 -183 c-45 -180 -112 -443 -228 -894
-32 -127 -59 -234 -59 -237 0 -3 35 -6 78 -6 l77 0 164 656 c113 454 161 666
158 688 -8 40 -7 39 -62 261 -26 105 -48 199 -51 210 -2 11 -17 75 -34 142
-27 110 -30 153 -11 153 3 0 28 20 54 45 42 38 52 43 73 35 13 -5 35 -12 47
-14 66 -12 153 -39 190 -60 47 -26 162 -88 277 -149 l76 -40 33 -96 c19 -53
37 -100 41 -104 6 -7 34 59 55 131 3 12 10 22 14 22 5 0 23 -44 41 -98 59
-173 50 -169 101 -48 43 102 58 125 60 89 0 -10 2 -25 4 -33 2 -8 5 -26 8 -40
3 -14 8 -36 11 -50 3 -14 8 -38 10 -54 16 -98 42 -184 43 -144 0 7 8 42 18 78
9 36 19 73 21 82 9 38 13 57 38 156 l26 104 -20 136 c-10 75 -21 157 -24 182
-3 25 -10 79 -16 120 -6 41 -13 95 -16 120 -7 73 -14 120 -19 143 -2 12 -7 45
-10 72 -14 131 -17 137 -96 259 -43 67 -82 126 -87 131 -4 6 -11 17 -15 25 -4
8 -46 75 -94 148 -49 72 -215 327 -371 566 l-283 434 -127 75 c-70 41 -144 84
-164 95 -20 12 -55 32 -77 46 -22 15 -42 26 -44 26 -3 0 -78 43 -168 96 l-164
97 -90 -23 c-128 -31 -135 -35 -188 -103 -26 -34 -62 -78 -80 -98 -18 -21
-114 -136 -215 -258 l-183 -220 -109 54 -109 55 35 102 34 103 133 85 c400
256 444 288 451 322 7 44 13 84 20 138 3 25 8 54 10 65 2 11 7 45 11 75 4 30
9 58 11 61 2 3 60 -9 129 -27 69 -18 136 -31 148 -29 12 2 40 6 62 9 74 9 140
18 143 20 1 2 -3 17 -9 33 -7 21 -19 33 -37 38 -15 3 -116 37 -225 75 -190 67
-203 73 -305 147 l-107 78 -170 0 c-93 0 -208 -3 -255 -6z m-93 -211 c40 -43
30 -102 -20 -123 -35 -15 -52 -11 -84 18 -25 23 -29 53 -12 91 19 41 84 48
116 14z"/>
</g>
</svg>
