<?xml version="1.0" standalone="no"?>
<!DOCTYPE svg PUBLIC "-//W3C//DTD SVG 20010904//EN"
 "http://www.w3.org/TR/2001/REC-SVG-20010904/DTD/svg10.dtd">
<svg version="1.0" xmlns="http://www.w3.org/2000/svg"
 width="550.000000pt" height="550.000000pt" viewBox="0 0 550.000000 550.000000"
 preserveAspectRatio="xMidYMid meet">
<metadata>
Created by potrace 1.11, written by Peter Selinger 2001-2013
</metadata>
<g transform="translate(0.000000,550.000000) scale(0.100000,-0.100000)"
fill="#000000" stroke="none">
<path d="M1950 5400 c-60 -8 -330 -120 -343 -142 -4 -7 -22 -47 -41 -88 l-34
-75 -451 -254 -451 -253 0 -34 0 -34 53 21 c28 11 250 97 493 190 l440 169
104 -40 104 -40 64 37 c36 19 117 59 180 88 114 52 114 52 170 41 l56 -12 12
-56 11 -57 -326 -207 c-179 -114 -327 -208 -329 -209 -1 -1 -10 -60 -19 -131
l-17 -129 -74 -115 c-41 -63 -109 -167 -150 -230 -85 -131 -174 -266 -254
-390 -112 -173 -213 -329 -303 -466 -79 -119 -94 -148 -100 -195 -3 -29 -8
-65 -10 -79 -8 -52 -15 -106 -20 -150 -2 -25 -7 -63 -11 -85 -3 -22 -7 -51 -9
-65 -2 -14 -6 -43 -9 -65 -7 -45 -13 -96 -22 -175 -3 -30 -12 -95 -19 -145
-13 -87 -13 -94 12 -195 14 -58 26 -109 27 -115 16 -77 52 -205 58 -205 4 0 8
8 9 18 0 9 2 24 4 32 2 8 16 77 32 153 15 75 30 137 33 137 3 0 25 -48 49
-106 40 -94 46 -104 54 -83 5 13 26 73 47 133 42 121 40 121 80 -1 l24 -72 21
52 c11 29 29 77 40 108 17 51 23 59 69 82 82 42 237 126 286 155 25 14 98 40
162 57 l117 32 24 -21 c13 -12 41 -36 61 -54 l38 -33 -67 -277 c-37 -152 -68
-285 -70 -295 -3 -10 -7 -27 -10 -37 -3 -10 -8 -29 -11 -42 -3 -13 -6 -27 -8
-33 -21 -75 -17 -101 54 -385 40 -157 73 -292 75 -300 2 -8 38 -152 80 -320
42 -168 79 -314 81 -325 3 -11 7 -27 9 -35 2 -8 4 -21 4 -27 1 -9 24 -13 81
-13 92 0 86 -15 50 125 -11 44 -22 88 -24 97 -22 88 -150 592 -158 623 -6 22
-12 45 -14 50 -1 6 -23 91 -48 190 -26 99 -49 196 -52 215 -3 24 16 108 61
270 37 129 68 244 70 255 3 11 22 78 42 148 l38 129 75 40 c72 38 77 42 125
126 52 91 67 108 154 182 73 61 138 118 185 161 l39 36 167 -144 c156 -136
170 -151 220 -237 52 -90 55 -94 129 -132 l75 -39 107 -387 107 -388 -167
-657 -168 -658 80 -3 c44 -2 82 -1 84 2 3 3 79 300 169 660 l164 655 -93 383
-92 382 58 54 c37 34 64 51 75 48 9 -3 55 -15 102 -26 65 -16 132 -46 282
-127 109 -57 201 -110 205 -116 5 -6 24 -53 43 -105 19 -52 39 -94 45 -94 5 0
20 32 33 71 13 39 27 71 31 71 5 0 27 -54 51 -121 23 -66 46 -117 50 -112 4 4
24 50 46 100 21 51 41 90 45 85 3 -4 22 -82 40 -174 19 -93 36 -168 39 -168 3
0 29 101 59 224 l54 224 -60 459 -60 459 -443 680 c-243 373 -444 688 -445
699 -7 43 -14 92 -20 151 -8 66 2 56 -135 142 -36 23 -103 66 -150 96 -47 30
-152 96 -233 148 l-149 93 6 35 c3 19 7 44 10 55 2 11 5 23 5 26 1 4 30 12 65
19 l63 12 178 -86 178 -86 66 24 c36 13 82 31 101 39 35 14 39 12 355 -110
176 -68 390 -150 475 -182 85 -33 163 -63 173 -67 16 -6 18 -2 15 22 -3 29 -8
33 -188 132 -36 19 -82 46 -102 59 -21 13 -39 23 -42 23 -2 0 -48 25 -102 56
-117 66 -165 93 -219 124 -22 12 -88 49 -146 82 l-105 60 -45 90 -44 91 -152
63 -153 63 -240 5 -241 6 -62 -42 c-34 -23 -82 -57 -106 -75 -76 -59 -66 -60
-197 32 l-119 85 -210 -1 c-115 -1 -235 -5 -265 -9z m-66 -201 c84 -38 32
-165 -53 -130 -57 24 -62 88 -9 125 27 19 30 19 62 5z m1633 -11 c42 -39 19
-118 -37 -129 -30 -6 -67 11 -81 37 -41 77 54 152 118 92z m-821 -136 c0 -4 3
-23 7 -42 4 -19 9 -51 11 -70 15 -110 36 -237 41 -252 5 -13 -2 -17 -34 -23
-22 -4 -45 -13 -51 -20 -9 -11 -16 -11 -40 2 -16 8 -39 15 -50 16 -23 1 -23 2
-10 25 13 24 54 328 46 348 -3 8 -2 12 3 9 5 -3 12 -1 16 5 3 5 18 7 32 4 20
-6 24 -4 18 7 -5 8 -4 11 1 6 5 -5 9 -12 10 -15z m1041 -1234 c-3 -7 -5 -2 -5
12 0 14 2 19 5 13 2 -7 2 -19 0 -25z m-350 -600 c-3 -8 -6 -5 -6 6 -1 11 2 17
5 13 3 -3 4 -12 1 -19z m-77 -2 c0 -2 -8 -10 -17 -17 -16 -13 -17 -12 -4 4 13
16 21 21 21 13z m87 -88 c-3 -7 -5 -2 -5 12 0 14 2 19 5 13 2 -7 2 -19 0 -25z
m-307 -102 c0 -2 -8 -10 -17 -17 -16 -13 -17 -12 -4 4 13 16 21 21 21 13z
m-70 -60 c0 -2 -8 -10 -17 -17 -16 -13 -17 -12 -4 4 13 16 21 21 21 13z m-70
-60 c0 -2 -8 -10 -17 -17 -16 -13 -17 -12 -4 4 13 16 21 21 21 13z m-140 -119
c0 -2 -10 -12 -22 -23 l-23 -19 19 23 c18 21 26 27 26 19z m-80 -71 c0 -2 -8
-10 -17 -17 -16 -13 -17 -12 -4 4 13 16 21 21 21 13z"/>
</g>
</svg>
